<?xml version="1.0" encoding="utf-8"?>
<!-- Generator: Adobe Illustrator 19.2.1, SVG Export Plug-In . SVG Version: 6.00 Build 0)  -->
<svg version="1.1" id="Layer_1" xmlns="http://www.w3.org/2000/svg" xmlns:xlink="http://www.w3.org/1999/xlink" x="0px" y="0px"
	 viewBox="0 0 1155.1 133.3" style="enable-background:new 0 0 1155.1 133.3;" xml:space="preserve">
<style type="text/css">
	.st0{fill:#676767;}
	.st1{fill:#D21B1C;}
</style>
<g id="Layer_1_1_">
</g>
<g id="Layer_2">
	<g id="XMLID_3_">
		<path id="XMLID_46_" class="st0" d="M31.2,5.1V58h3.5L72.6,5.1h27.1L55,60.7c17.9,3.3,25.4,15,31.1,30.5
			c4.6,13,8.2,25.4,13.9,37.1H75.8c-4.4-8.4-7.1-18.7-10.2-28c-4.9-15-11.5-25.8-29.3-25.8h-5.1v53.8H8.9V5.1H31.2z"/>
		<path id="XMLID_48_" class="st0" d="M142.6,5.1l20.8,48.1c3.3,8,6,15.4,8.8,22.7h0.5c1.8-5.7,4-13.4,7.1-23l15.9-47.7h23.8
			l-24.3,62c-7.1,17.9-14.8,36.6-23.8,48.1c-8,10.1-17.7,15.7-30.5,15.7c-5.5,0-8.8-0.5-11.5-1.6l1.6-18.1c2,0.5,4.4,0.7,7.9,0.7
			c10.4,0,16.8-8.8,19.9-15.7c1.1-2.4,0.7-4-0.4-6.6L117.1,5.2h25.5V5.1z"/>
		<path id="XMLID_50_" class="st0" d="M320.5,5.1v123.3H298V23.6h-33.7v32.9c0,29.4-2.7,56.3-20.7,67.7c-5.5,3.1-13.4,5.9-21.9,5.9
			l-2.9-18.1c5.7-0.7,10.6-3.5,13.5-6.6c8.6-8.6,10.1-28.2,10.1-47.2v-53h78.1V5.1z"/>
		<path id="XMLID_52_" class="st0" d="M373.4,5.1v44.4c3.8-0.7,10.4-1.1,15.2-1.1c25.8,0,48.3,12.1,48.3,39.3
			c0,11.7-3.8,20.5-9.7,26.7c-11.2,11.5-30.2,15.2-48.5,15.2c-12.4,0-21.8-0.9-27.6-1.6V5.1H373.4z M373.4,111.9
			c3.3,0.5,6.9,0.7,11.5,0.7c15.4,0,28.3-7.5,28.3-23.8c0-16.5-13-22.9-28.2-22.9c-4,0-8,0.4-11.7,0.7v45.3H373.4z"/>
		<path id="XMLID_55_" class="st0" d="M469.6,23.9h-35.1V5.1h93.1v18.8h-35.5v104.4h-22.5L469.6,23.9L469.6,23.9z"/>
		<path id="XMLID_57_" class="st0" d="M561.7,5.1l20.8,48.1c3.3,8,6,15.4,8.8,22.7h0.5c1.8-5.7,4-13.4,7.1-23l15.9-47.7h23.8
			l-24.3,62c-7.1,17.9-14.8,36.6-23.8,48.1c-8,10.1-17.7,15.7-30.5,15.7c-5.5,0-8.8-0.5-11.5-1.6l1.6-18.1c2,0.5,4.4,0.7,7.9,0.7
			c10.4,0,16.8-8.8,19.9-15.7c1.1-2.4,0.7-4-0.4-6.6L536.2,5.2h25.5V5.1z"/>
		<path id="XMLID_59_" class="st0" d="M655.4,6.7c8.2-1.5,19.4-2.6,34.4-2.6c16.5,0,28.3,3.5,36.2,10.1c7.3,6,12.1,15.7,12.1,27.3
			c0,11.7-3.7,21.2-10.4,27.8c-9.1,9-23,13.4-39,13.4c-4.2,0-7.9-0.2-11-0.9v46.6h-22.3V6.7z M677.7,64c2.9,0.9,6.4,1.1,11,1.1
			c16.8,0,27.1-8.4,27.1-22.7c0-13.7-9.5-20.8-25.1-20.8c-6.2,0-10.6,0.5-13,1.1V64z"/>
		<path id="XMLID_62_" class="st0" d="M773.9,93.4l-10.6,34.9h-23.2L779.6,5h28.7l40.1,123.3H824l-11.2-34.9H773.9z M809.2,76.4
			L799.5,46c-2.4-7.5-4.4-15.9-6.2-23h-0.4c-1.8,7.1-3.8,15.7-5.9,23l-9.5,30.4H809.2z"/>
		<path id="XMLID_65_" class="st0" d="M866.4,115.9c0-8.4,5.9-14.4,13.9-14.4c8.2,0,13.9,5.9,13.9,14.4c0,8.2-5.5,14.4-14.1,14.4
			C872.1,130.4,866.4,124.2,866.4,115.9z"/>
		<path id="XMLID_67_" class="st1" d="M917.8,6.7c8.2-1.5,19.4-2.6,34.4-2.6c16.5,0,28.3,3.5,36.2,10.1c7.3,6,12.1,15.7,12.1,27.3
			c0,11.7-3.7,21.2-10.4,27.8c-9.1,9-23,13.4-39,13.4c-4.2,0-7.9-0.2-11-0.9v46.6h-22.3V6.7z M940.1,64c2.9,0.9,6.4,1.1,11,1.1
			c16.8,0,27.1-8.4,27.1-22.7c0-13.7-9.5-20.8-25.1-20.8c-6.2,0-10.6,0.5-13,1.1V64z"/>
		<path id="XMLID_70_" class="st1" d="M1090.6,0v11c26.2,1.5,52.3,17,52.3,55.4s-25.8,53.6-52.7,55.6v11.3H1069V122
			c-26.3-1.8-52.3-16.3-52.3-54.7c0-39.7,28.9-54.7,52.7-56.3V0H1090.6z M1069.2,26.5c-13.2,1.3-29.6,11.3-29.6,40.2
			c0,26.3,15.4,37.9,29.6,39.5V26.5z M1090.5,106.2c13.9-1.3,29.6-11.7,29.6-39.9c0-28.5-15.2-38.6-29.6-39.9V106.2z"/>
	</g>
</g>
</svg>
