<svg width="313" height="48" xmlns="http://www.w3.org/2000/svg"><title>logo</title><g fill="none" fill-rule="evenodd"><path fill="#3B3B3B" d="M0 39.656h54.994V0H0z"/><path fill="#676767" d="M0 39.656h54.994V0H0zm93.076 0h54.995V0H93.076z"/><path d="M54.943 48h38.222V8.247H54.943V48zm3.191-28.598l16.528-3.991 15.321 3.984-.921 1.593-14.406-4.269-15.599 4.275-.923-1.592zm27.598 5.569h1.35l.34 15.129h-2.035l.345-15.129zm-4.789 0h1.35l.34 15.129h-2.035l.345-15.129zm-4.766 0h1.35l.34 15.129h-2.036l.346-15.129zm-4.778 0h1.351l.338 15.129h-2.035l.346-15.129zm-4.778 0h1.351l.339 15.129h-2.035l.345-15.129zm-4.768 0h1.351l.34 15.129h-2.035l.344-15.129zm99.087 13.385c.394-.039.937-.064 1.34-.064.33 0 .81.025 1.164.051v-.303c-.215.012-.52-.051-.632-.164-.09-.077-.14-.228-.14-.394v-.265l3.114-2.705v2.883c0 .139 0 .278-.152.416-.14.128-.443.203-.671.216v.329c.392-.039.936-.064 1.34-.064.329 0 .81.025 1.163.051v-.303c-.164.012-.468-.026-.594-.127-.164-.126-.177-.342-.177-.494v-3.578c0-.139 0-.278.152-.417.139-.127.443-.202.67-.214v-.33a15.18 15.18 0 0 1-1.34.063c-.328 0-.81-.024-1.163-.05v.304c.215-.013.519.05.632.164.127.126.14.316.14.442v.228l-3.114 2.706v-2.896c0-.139 0-.278.153-.417.139-.127.442-.202.67-.214v-.33c-.392.039-.936.063-1.34.063a18.2 18.2 0 0 1-1.163-.05v.304c.215-.013.518.05.633.164.126.126.139.316.139.442v3.592c0 .139 0 .278-.152.416-.14.128-.443.203-.671.216v.329zm7.71-5.159c.19.013.418.05.62.138.127.064.254.127.367.241v.734c0 .467-.025.733-.037 1.087-.038.771-.013 1.025-.102 1.947-.013.152-.038.367-.165.506-.05.05-.214.202-.733.215v.315h.847c.127 0 .266-.012.39-.012.114 0 .217.012.33.012.139.014.29.014.43.014v-.329c-.177.013-.443-.025-.556-.126-.114-.103-.126-.228-.126-.355-.013-.455-.027-.669 0-1.315l.036-.796c.026-.48.026-.974.039-1.454.43.835.733 1.529 1.088 2.427l.81 2.024.253.037c.24-.631.455-1.151 2.125-4.956l.063 3.868c0 .254-.1.38-.113.392-.102.115-.381.178-.582.191l-.013.341c.48.037.62-.013 1.24-.013.49 0 .428.026 1.15.013v-.329h-.04c-.19 0-.453-.012-.593-.164-.164-.177-.151-.556-.151-.848l-.064-3.249c0-.151 0-.291.126-.418.102-.101.292-.151.594-.113v-.316h-.29c-.266 0-.532.025-.796.025-.151 0-.303-.025-.455-.025h-.19l-.81 1.846c-.126.291-.252.593-.38.885-.062.139-.113.265-.176.404-.14.317-.19.443-.456 1.05h-.063c-.924-2.2-1.138-2.794-1.392-3.376l-.353-.809h-.393c-.101 0-.214.013-.316.013-.113.012-.226.012-.34.012-.151 0-.303-.012-.823-.025v.291zm12.885 1.82c.088-.935-.24-1.468-.568-1.772-.304-.277-.76-.478-1.315-.478-.57 0-1.114.201-1.607.681-.621.608-.974 1.505-.974 2.479 0 .937.342 1.594.758 1.986.355.341.91.594 1.519.594.493 0 .962-.151 1.404-.467.303-.215.594-.507.833-.861l-.177-.202a3.932 3.932 0 0 1-.605.493c-.266.165-.57.278-.923.278-.43 0-.85-.164-1.23-.531a2.161 2.161 0 0 1-.517-.809 2.935 2.935 0 0 1-.177-.962c0-.139.013-.303.037-.429h3.542zm-3.49-.353c.075-.367.264-.848.543-1.14.228-.24.53-.392.873-.392.304 0 .595.113.786.304.214.215.29.456.29.759a.499.499 0 0 1-.09.317c-.125.152-.316.152-.454.152h-1.948zm4.558 3.692c.392-.039.936-.064 1.34-.064.328 0 .809.025 1.163.051v-.303a1.095 1.095 0 0 1-.632-.164c-.052-.04-.088-.089-.115-.203-.024-.127-.024-.329-.024-.24v.049-1.845h3.113v1.758c0 .139 0 .278-.153.416-.14.128-.442.203-.671.216v.329a15.22 15.22 0 0 1 1.34-.064c.329 0 .809.025 1.164.051v-.303c-.215.012-.52-.051-.633-.164-.126-.128-.14-.305-.14-.457v-3.578c0-.139 0-.278.153-.417.139-.127.443-.202.67-.214v-.33c-.392.039-.935.063-1.34.063-.328 0-.81-.024-1.162-.05v.304c.215-.013.518.05.63.164.128.126.142.316.142.442v1.443h-3.113v-1.405c0-.139 0-.278.15-.417.14-.127.444-.202.67-.214v-.33c-.39.039-.934.063-1.338.063-.33 0-.81-.024-1.164-.05v.304c.215-.013.519.05.632.164.128.126.14.316.14.442v3.592c0 .139 0 .278-.151.416-.14.128-.444.203-.671.216v.329zm7.709 0c.392-.039.936-.064 1.34-.064.328 0 .81.025 1.163.051v-.303c-.215.012-.52-.051-.633-.164-.088-.077-.14-.228-.14-.394v-.265l3.114-2.705v2.883c0 .139 0 .278-.152.416-.14.128-.443.203-.67.216v.329a15.16 15.16 0 0 1 1.339-.064c.329 0 .809.025 1.164.051v-.303c-.165.012-.468-.026-.595-.127-.164-.126-.177-.342-.177-.494v-3.578c0-.139 0-.278.152-.417.139-.127.443-.202.67-.214v-.33a15.15 15.15 0 0 1-1.34.063 18.2 18.2 0 0 1-1.163-.05v.304c.215-.013.519.05.633.164.127.126.139.316.139.442v.228l-3.113 2.706v-2.896c0-.139 0-.278.152-.417.139-.127.444-.202.67-.214v-.33c-.392.039-.935.063-1.34.063-.328 0-.81-.024-1.162-.05v.304c.215-.013.518.05.632.164.126.126.139.316.139.442v3.592c0 .139 0 .278-.152.416-.14.128-.442.203-.67.216v.329zm10.41-.039l1.328-.025 1.466.038h.229v-.354c-.215 0-.481-.037-.645-.102-.228-.087-.354-.252-.354-.569 0-.176.088-.505.126-.632.05-.19.417-1.34.582-1.833l.669.013c.62.012.342.012 2.302.05l.81 2.049c.114.29.126.467.126.544a.41.41 0 0 1-.164.354c-.025.024-.176.113-.531.113h-.252v.38l.467.013 1.314-.039 1.138.039.38-.013v-.367a3.495 3.495 0 0 1-.532-.076c-.227-.064-.33-.139-.455-.329-.151-.24-.291-.556-.556-1.201a86.79 86.79 0 0 1-.682-1.744l-2.061-5.312-.165-.063a8.805 8.805 0 0 0-.52.341c-.1.076-.201.151-.251.253-.051.101-.063.19-.19.62-.215.733-.494 1.682-1.606 5.007-.19.569-.266.81-.367 1.088-.202.556-.304.771-.393.898a.953.953 0 0 1-.53.405c-.19.05-.532.076-.683.088v.366zm2.908-3.97c.24-.808.417-1.378.646-2.074l.48-1.492c.328.721.798 1.808 1.417 3.566h-2.543zm7.36 3.377c0 .417.368.783.785.783.417 0 .77-.354.77-.783 0-.43-.34-.771-.77-.771a.785.785 0 0 0-.784.771zm10.34-1.618a2.634 2.634 0 0 1-.683 1.29c-.317.316-.936.721-2.037.721-.682 0-1.441-.164-2.037-.506-.606-.354-1.125-.936-1.466-1.607-.33-.645-.468-1.354-.468-2.15 0-.721.126-1.367.494-2.063.366-.696.847-1.215 1.429-1.556a3.67 3.67 0 0 1 1.858-.481c.836 0 1.493.267 2.012.785.279.278.595.709.746 1.329l.316-.051c-.075-.987-.101-.924-.164-1.771a7.304 7.304 0 0 0-1.38-.518 6.643 6.643 0 0 0-1.58-.189c-.595 0-1.24.076-1.86.29a4.803 4.803 0 0 0-2.553 1.998c-.594.937-.695 1.771-.695 2.303 0 .733.177 1.454.606 2.188a4.943 4.943 0 0 0 1.935 1.86c.733.391 1.657.617 2.656.617.633 0 1.707-.087 2.909-.68.063-.38.115-.595.177-.899.063-.278.1-.48.152-.822l-.367-.088zm1.81 1.618c0 .417.366.783.784.783a.786.786 0 0 0 .77-.783.766.766 0 0 0-.77-.771.785.785 0 0 0-.784.771zm6.173-7.766c.227 0 .569.012.77.05.14.025.317.063.393.139.127.114.19.455.202.582.038.329.064.81.064 1.847v4.352c0 .202 0 .569-.177.772-.165.177-.494.239-1.063.253v.377c.874.038 1.228-.013 1.707-.013.897 0 .82.051 1.846.013v-.377h-.215c-.418 0-.645-.051-.772-.165-.177-.164-.19-.481-.19-.709v-6.338c0-.126.013-.366.164-.493.077-.063.242-.152.912-.152h2.973c.67 0 .835.089.91.152.154.127.166.367.166.493v6.301c0 .189 0 .519-.165.682-.202.203-.81.229-1.075.229v.377c.96.038 1.214-.013 1.834-.013.783 0 .82.051 1.744.013v-.377h-.164c-.254 0-.633-.014-.823-.191-.202-.19-.215-.544-.215-.784v-4.402c0-1.037.026-1.518.064-1.847.012-.127.076-.468.202-.582.077-.076.253-.114.392-.139.202-.038.544-.05.77-.05v-.379c-1.213-.037-1.074.026-2.843.026h-4.48c-1.868 0-1.717-.063-2.931-.026v.379zm10.545 2.948v.328h.126c.203 0 .48.013.709.216.139.126.278.341.518.961l1.518 3.869-.215.469c-.316.695-.481.999-.594 1.187a2.486 2.486 0 0 1-.354.469.61.61 0 0 1-.457.202c-.05 0-.113 0-.164-.012-.051-.013-.113-.013-.164-.013a.452.452 0 0 0-.38.177.539.539 0 0 0-.113.329.58.58 0 0 0 .127.341c.088.101.24.177.417.177.328 0 .569-.189.746-.379.177-.19.354-.468.62-.961.304-.582.595-1.202 1.05-2.213.72-1.582.999-2.189 1.214-2.656.164-.354.555-1.15.72-1.455.114-.214.254-.417.443-.543.19-.126.493-.177.722-.177v-.303l-.316-.013-.886.037-.95-.037-.29.013v.303l.203.012c.139.013.392.051.518.139.089.064.127.127.127.241 0 .139-.064.291-.114.405l-1.391 3.098-1.19-3.061c-.151-.379-.151-.468-.151-.505 0-.063.025-.127.088-.178.026-.012.1-.076.29-.088l.52-.051v-.315l-1.265.037-1.303-.05h-.38zm7.433.354h.1c.165 0 .393 0 .519.113.126.115.126.33.126.494v3.781c0 .152-.05.254-.201.343-.14.075-.418.1-.57.1v.289c1.01.039.797-.024 2.782-.024h3.06c2.264 0 2.024.063 3.036.024v-.289c-.152 0-.431-.025-.57-.1-.151-.089-.202-.191-.202-.343v-3.781c0-.164 0-.379.126-.494.127-.113.355-.113.52-.113h.1v-.317h-.354c-.316 0-.62.013-.935.013-.593 0-.467-.013-1.138-.013v.317c.165 0 .545.013.67.139.115.113.102.304.102.43v3.732c0 .201-.075.278-.101.303-.064.051-.19.101-.57.101h-.961c-.38 0-.507-.05-.571-.101-.025-.025-.1-.102-.1-.303v-3.745c0-.126.013-.315.139-.443.113-.113.418-.176.633-.163v-.304c-.355.025-.836.05-1.164.05-.403 0-.948-.025-1.34-.063v.329c.227.012.53.088.67.215.152.139.152.278.152.417v3.707c0 .201-.075.278-.1.303-.064.051-.191.101-.57.101h-.962c-.38 0-.507-.05-.57-.101-.026-.025-.101-.102-.101-.303v-3.732c0-.126-.013-.317.1-.43.127-.126.508-.139.672-.139v-.317c-.671 0-.545.013-1.14.013-.313 0-.617-.013-.933-.013h-.354v.317zm10.017-.038c.227.012.532.088.67.215.15.139.15.278.15.417v3.553c0 .139 0 .279-.15.418-.138.126-.443.202-.67.215v.328c.392-.038.936-.063 1.34-.063.328 0 .808.025 1.162.051v-.304c-.214.013-.518-.05-.631-.164-.128-.127-.14-.317-.14-.443v-1.733h.494c.253 0 .53.039.77.291.178.189.304.48.469.924.19.518.215.606.292.797.1.265.214.454.328.632h1.543v-.304h-.14a.918.918 0 0 1-.543-.189c-.127-.102-.228-.279-.456-.811-.202-.492-.38-.923-.645-1.162-.24-.228-.67-.392-1.113-.392.279-.012.506-.113.72-.404.128-.177.255-.443.306-.582.062-.152.125-.316.189-.506.075-.215.114-.278.139-.303.038-.038.076-.076.125-.076.052 0 .077.038.09.063a.386.386 0 0 0 .164.152c.089.05.216.063.303.063a.426.426 0 0 0 .279-.114.505.505 0 0 0 .164-.404.585.585 0 0 0-.164-.431c-.14-.139-.316-.189-.52-.189-.29 0-.48.126-.631.328-.076.102-.126.24-.202.43-.076.216-.165.494-.228.659-.165.467-.278.656-.341.746-.254.354-.545.417-.886.417h-.505v-1.544c0-.126.01-.302.126-.416.164-.165.556-.177.644-.177v-.304c-.354.025-.834.05-1.162.05-.404 0-.948-.025-1.34-.063v.329zm6.59 5.134a15.22 15.22 0 0 1 1.34-.064c.329 0 .809.025 1.164.051v-.303c-.214.012-.52-.051-.633-.164-.09-.077-.14-.228-.14-.394v-.265l3.114-2.705v2.883c0 .139 0 .278-.152.416-.14.128-.442.203-.671.216v.329a15.22 15.22 0 0 1 1.34-.064c.329 0 .81.025 1.164.051v-.303c-.165.012-.468-.026-.595-.127-.164-.126-.177-.342-.177-.494v-3.578c0-.139 0-.278.152-.417.139-.127.442-.202.67-.214v-.33c-.392.039-.935.063-1.34.063-.328 0-.81-.024-1.163-.05v.304c.215-.013.519.05.634.164.125.126.138.316.138.442v.228l-3.113 2.706v-2.896c0-.139 0-.278.152-.417.138-.127.443-.202.67-.214v-.33c-.392.039-.936.063-1.34.063a18.2 18.2 0 0 1-1.163-.05v.304c.216-.013.519.05.633.164.126.126.139.316.139.442v3.592c0 .139 0 .278-.152.416-.14.128-.442.203-.67.216v.329zm7.703 0c.392-.039.936-.064 1.34-.064.329 0 .809.025 1.163.051v-.303a1.095 1.095 0 0 1-.632-.164c-.051-.04-.09-.089-.114-.203-.025-.127-.025-.329-.025-.24v.049-1.845h3.112v1.758c0 .139 0 .278-.151.416-.14.128-.444.203-.671.216v.329c.392-.039.936-.064 1.34-.064.329 0 .809.025 1.163.051v-.303c-.215.012-.518-.051-.632-.164-.127-.128-.14-.305-.14-.457v-3.578c0-.139 0-.278.152-.417.14-.127.443-.202.672-.214v-.33c-.393.039-.937.063-1.341.063-.328 0-.81-.024-1.163-.05v.304c.215-.013.519.05.632.164.127.126.139.316.139.442v1.443h-3.112v-1.405c0-.139 0-.278.15-.417.14-.127.444-.202.672-.214v-.33c-.391.039-.937.063-1.34.063-.328 0-.81-.024-1.163-.05v.304c.215-.013.519.05.632.164.127.126.139.316.139.442v3.592c0 .139 0 .278-.151.416-.14.128-.443.203-.671.216v.329zm8.548-4.034a.378.378 0 0 1-.05-.203.47.47 0 0 1 .102-.278.882.882 0 0 1 .404-.239c.115-.039.254-.051.419-.051.392 0 .657.114.822.278.189.19.228.442.228.632v1.012l-.785.279c-.608.213-1.088.366-1.48.593-.405.24-.568.469-.568.885 0 .316.163.784.366.999a.884.884 0 0 0 .67.278c.328 0 .684-.127.999-.341.254-.177.583-.493.81-.747v.09c0 .202.025.518.19.733.189.24.467.265.606.265.366 0 .607-.151.746-.29.189-.19.329-.506.38-.798l-.177-.075a.763.763 0 0 1-.19.278.427.427 0 0 1-.33.126c-.075 0-.163-.012-.226-.088-.038-.051-.102-.151-.102-.468v-2.934c0-.303-.037-.707-.38-1.036-.301-.291-.871-.443-1.263-.455l-1.405.821c-.151.089-.416.279-.517.481a.732.732 0 0 0-.076.329.95.95 0 0 0 .076.341l.73-.417zm1.925 2.744a4.304 4.304 0 0 1-.532.505c-.164.127-.455.329-.721.329a.584.584 0 0 1-.506-.278 1.202 1.202 0 0 1-.177-.594c0-.316.177-.468.43-.62.165-.102.443-.252.962-.454l.544-.215v1.327zM160.94 23.574c.394-.038.937-.063 1.34-.063.33 0 .81.025 1.164.05v-.303c-.215.012-.52-.05-.632-.165-.09-.076-.14-.227-.14-.392v-.266l3.114-2.705v2.883c0 .14 0 .278-.152.417-.14.127-.443.202-.671.215v.33c.392-.039.936-.064 1.34-.064.329 0 .81.025 1.163.05v-.303c-.164.012-.468-.026-.594-.127-.164-.126-.177-.34-.177-.493V19.06c0-.138 0-.277.152-.416.139-.127.443-.203.67-.216V18.1c-.392.038-.936.063-1.34.063-.328 0-.81-.025-1.163-.05v.302c.215-.012.519.051.632.165.127.127.14.316.14.442v.23l-3.114 2.703V19.06c0-.138 0-.277.153-.416.139-.127.442-.203.67-.216V18.1c-.392.038-.936.063-1.34.063-.328 0-.808-.025-1.163-.05v.302c.215-.012.518.051.633.165.126.127.139.316.139.442v3.592c0 .14 0 .278-.152.417-.14.127-.443.202-.671.215v.33zm7.705-1.492c.05.392.05.607.076 1.14.315.201.91.504 1.846.504.39 0 .898-.05 1.264-.24.253-.126.506-.328.695-.619.165-.253.253-.506.253-.847 0-.367-.101-.683-.367-.937-.215-.202-.62-.429-1.162-.467.113-.013.455-.089.784-.304.315-.215.53-.493.53-.924 0-.302-.09-.745-.594-1.074-.441-.29-.961-.329-1.365-.329-.443 0-.961.051-1.682.354.037.417.05.81.037 1.164h.253a1.24 1.24 0 0 1 .266-.696c.316-.38.696-.43 1.049-.43a1.2 1.2 0 0 1 .646.152c.316.19.442.494.442.872 0 .404-.176.658-.341.797-.317.278-.747.292-1.113.292h-.215l-.064.417c.292-.039 1.075-.089 1.506.266.303.252.354.606.354.872 0 .518-.202.835-.392 1-.216.19-.581.29-.936.29-.455 0-.847-.177-1.05-.392-.203-.215-.353-.607-.405-.898l-.315.037zm8.338-4.097c-.62 0-1.442.19-2.111.858a2.98 2.98 0 0 0-.847 2.1c0 .71.252 1.43.796 1.975a2.81 2.81 0 0 0 1.998.808 2.84 2.84 0 0 0 1.455-.39 3.177 3.177 0 0 0 1.163-1.166 2.71 2.71 0 0 0 .354-1.378c0-.734-.29-1.392-.796-1.924-.481-.506-1.14-.883-2.012-.883zm-.151.391c.468 0 .836.177 1.126.467.53.532.759 1.418.759 2.265 0 .544-.101 1.265-.607 1.76a1.62 1.62 0 0 1-1.14.467c-.327 0-.746-.1-1.137-.493-.444-.456-.735-1.215-.735-2.164 0-.443.05-1.266.608-1.835a1.562 1.562 0 0 1 1.126-.467zm4.9.834c0-.43.012-.822.088-1.276.063-.405.19-.937.62-1.253.252-.177.619-.292 1.39-.43.584-.1.355-.05 1.33-.229.506-.088.77-.15.999-.732.1-.265.227-.683.278-.91l-.291-.064c-.038.165-.125.367-.227.47-.152.138-.405.201-.607.24-.355.062-.33.037-.937.138-.784.126-1.24.316-1.518.467-.71.404-1.075 1.011-1.302 1.67-.253.734-.467 1.897-.467 2.858 0 1.303.354 2.113.746 2.62.466.593 1.112.947 2.035.947.633 0 1.139-.164 1.53-.404a2.85 2.85 0 0 0 1.038-1.164c.176-.366.328-.873.328-1.34 0-.369-.09-.899-.253-1.278a2.613 2.613 0 0 0-1.01-1.164c-.468-.29-.925-.39-1.468-.39-.506 0-.861.087-1.291.352-.494.303-.733.607-.898.872h-.113zm2.238-.834c.48 0 .86.227 1.139.556.48.57.582 1.291.582 1.935 0 1.152-.33 1.671-.506 1.898-.366.47-.835.57-1.19.57-.543 0-1.037-.202-1.404-.784-.354-.557-.431-1.253-.431-1.848 0-.62.077-1.265.52-1.758.29-.329.772-.569 1.29-.569zm3.496 8.397h.24c.57 0 .38-.024.986-.024.48 0 1.25.075 1.758.075h.139v-.29c-.683-.026-.911-.127-1.013-.229-.177-.176-.163-.556-.163-.834v-1.783c.948.051 1.429-.012 1.808-.114.57-.15 1.216-.504 1.632-.948.304-.317.745-.923.745-1.96 0-1.114-.53-1.747-.781-2-.392-.379-.9-.593-1.393-.593-.253 0-.57.064-.974.24-.253.114-.735.366-1.037.543v-.87c-.481.226-1.024.48-1.656.745v.164c.202.051.506.178.619.33.089.113.127.29.127.493v5.588c0 .545-.064.772-.164.898-.178.216-.557.266-.873.28v.29zm1.947-7.6c.34-.203.834-.393 1.277-.393.418 0 .886.152 1.24.493.406.392.658 1.026.658 1.76 0 .708-.215 1.24-.595 1.62-.215.214-.582.48-1.227.48-.19 0-.43-.026-.645-.089-.493-.139-.595-.29-.645-.443-.052-.152-.063-.443-.063-.607v-2.82zm6.21.367a.351.351 0 0 1-.05-.202c0-.076.025-.178.102-.279a.9.9 0 0 1 .405-.24c.113-.037.252-.05.417-.05.393 0 .658.113.823.28.19.187.227.44.227.63v1.012l-.785.28c-.607.213-1.087.365-1.48.592-.403.241-.568.468-.568.885 0 .317.165.784.366 1a.888.888 0 0 0 .67.278c.33 0 .684-.127 1-.34.253-.179.583-.495.81-.748v.088c0 .203.026.52.19.735.189.24.467.265.606.265.366 0 .606-.152.746-.29.189-.19.328-.507.38-.798l-.177-.076a.765.765 0 0 1-.191.28.428.428 0 0 1-.328.125c-.076 0-.164-.013-.228-.089-.038-.05-.101-.152-.101-.468v-2.933c0-.304-.038-.708-.38-1.037-.302-.29-.87-.443-1.263-.455l-1.405.821c-.152.09-.416.28-.518.481a.734.734 0 0 0-.075.33c0 .075.012.163.075.341l.733-.418zm1.924 2.744a4.189 4.189 0 0 1-.531.506c-.165.127-.455.33-.721.33a.587.587 0 0 1-.507-.279 1.213 1.213 0 0 1-.177-.595c0-.316.177-.468.43-.62a5.93 5.93 0 0 1 .962-.455l.544-.215v1.328zm2.96-.202c.05.392.05.607.077 1.14.315.201.91.504 1.846.504.392 0 .898-.05 1.264-.24.253-.126.506-.328.695-.619.164-.253.253-.506.253-.847 0-.367-.101-.683-.366-.937-.215-.202-.62-.429-1.163-.467.113-.013.455-.089.784-.304.315-.215.53-.493.53-.924 0-.302-.09-.745-.594-1.074-.442-.29-.961-.329-1.365-.329-.443 0-.961.051-1.682.354.038.417.05.81.038 1.164h.253c.013-.152.05-.43.265-.696.316-.38.696-.43 1.05-.43a1.2 1.2 0 0 1 .645.152c.316.19.443.494.443.872 0 .404-.178.658-.342.797-.316.278-.746.292-1.113.292h-.216l-.062.417c.29-.039 1.075-.089 1.506.266.302.252.354.606.354.872 0 .518-.203.835-.393 1-.215.19-.582.29-.936.29-.455 0-.847-.177-1.05-.392-.203-.215-.353-.607-.404-.898l-.316.037zm5.18 1.492c.393-.038.937-.063 1.34-.063.328 0 .81.025 1.164.05v-.303c-.214.012-.52-.05-.632-.165-.09-.076-.14-.227-.14-.392v-.266l3.114-2.705v2.883c0 .14 0 .278-.153.417-.14.127-.442.202-.671.215v.33a15.64 15.64 0 0 1 1.34-.064c.329 0 .809.025 1.164.05v-.303c-.164.012-.468-.026-.594-.127-.165-.126-.178-.34-.178-.493V19.06c0-.138 0-.277.152-.416.139-.127.443-.203.67-.216V18.1a15.56 15.56 0 0 1-1.34.063c-.328 0-.808-.025-1.162-.05v.302c.215-.012.517.051.632.165.126.127.14.316.14.442v.23l-3.114 2.703V19.06c0-.138 0-.277.15-.416.14-.127.445-.203.672-.216V18.1a15.54 15.54 0 0 1-1.34.063c-.328 0-.808-.025-1.163-.05v.302c.215-.012.519.051.633.165.126.127.139.316.139.442v3.592c0 .14 0 .278-.152.417-.14.127-.442.202-.67.215v.33zm8.753-.329v.316c.847.038.91-.025 1.934-.025.354 0 .898.025 1.037.025v-.329h-.113c-.23 0-.62.013-.811-.19-.15-.164-.15-.493-.15-.822v-3.705h.316c.354 0 .784-.013 1.062.278.202.202.34.683.38 1.036h.34l-.164-1.743c-1.162.025-1.252.038-1.48.038h-1.77c-.265 0-.605-.013-1.554-.038l-.164 1.743h.34c.038-.353.177-.834.38-1.036.278-.29.709-.278 1.063-.278h.316v3.857c0 .202 0 .506-.164.683-.19.202-.557.19-.721.19h-.077zm9.542-3.01c.089-.935-.24-1.467-.568-1.77-.304-.279-.76-.48-1.316-.48-.57 0-1.113.201-1.606.681-.62.608-.974 1.506-.974 2.48 0 .935.342 1.593.758 1.985.355.341.91.595 1.518.595.495 0 .962-.152 1.405-.469.303-.215.593-.505.833-.859l-.177-.202a3.987 3.987 0 0 1-.605.492c-.266.165-.57.28-.924.28-.43 0-.847-.165-1.227-.533a2.144 2.144 0 0 1-.52-.809 2.93 2.93 0 0 1-.177-.96c0-.14.013-.305.039-.432h3.54zm-3.49-.353c.075-.367.265-.849.543-1.14a1.2 1.2 0 0 1 .874-.393c.303 0 .595.115.784.305.216.214.29.456.29.76a.505.505 0 0 1-.088.316c-.126.152-.316.152-.455.152h-1.948zm10.163-1.796c-.454.038-.911.063-1.428.063h-1.543c-1.074 0-.961-.025-1.53-.025v.365c.456-.025.645.038.746.114.165.127.165.342.165.418 0 .517-.152 1.48-.278 2.05-.09.416-.253 1.036-.38 1.351-.101.241-.203.47-.392.47-.177 0-.215-.153-.392-.255a.591.591 0 0 0-.253-.063.487.487 0 0 0-.342.14.56.56 0 0 0-.164.393c0 .29.227.62.657.62.29 0 .582-.153.785-.368.113-.127.265-.342.443-.785.177-.455.303-.948.417-1.504a36.28 36.28 0 0 0 .292-1.809c.037-.303.062-.507.15-.595.052-.05.178-.126.658-.126.19 0 .544.013.633.126.075.088.075.355.075.43v3.58c0 .127.014.315-.101.431-.126.125-.505.138-.67.138v.316c.67 0 .544-.012 1.137-.012.316 0 .62.012.936.012h.354v-.316h-.101c-.165 0-.392 0-.52-.114-.125-.114-.125-.328-.125-.494v-3.78c0-.153.05-.254.2-.342.14-.076.419-.1.57-.1v-.329zm1.228.328c.215-.012.52.051.633.165.126.127.139.316.139.417v3.313c0 .368-.013.507-.063.61-.064.125-.165.163-.28.188-.125.038-.163.051-.315.076-.164.013-.114.013-.202.025v.353h.404c.089 0 .165-.012.253-.012.178-.013.367-.013.544-.013.1 0 .214-.012.316-.012.303 0 .379 0 .543.012.216.013.532.025.848.025.887 0 1.353-.289 1.594-.555.202-.227.353-.607.353-1.063 0-.418-.125-.773-.416-1.063-.38-.379-1-.556-1.607-.556a5.18 5.18 0 0 0-1.063.127V19.06c0-.138 0-.277.153-.416.138-.127.443-.203.67-.216V18.1c-.393.038-.936.063-1.34.063-.33 0-.81-.025-1.164-.05v.302zm1.68 2.378c.23-.064.406-.076.672-.076.342 0 .772.025 1.089.265.177.14.392.405.392.911 0 .38-.151.734-.354.95-.343.354-.823.354-1.076.354-.126 0-.431-.013-.583-.19-.114-.139-.14-.43-.14-.645v-1.569zm3.929 2.782c.392-.038.936-.063 1.339-.063.329 0 .809.025 1.164.05v-.303a1.083 1.083 0 0 1-.633-.165c-.05-.038-.088-.088-.113-.202-.026-.126-.026-.329-.026-.24v.05-1.845h3.113v1.757c0 .14 0 .278-.151.417-.14.127-.444.202-.671.215v.33a15.18 15.18 0 0 1 1.339-.064c.329 0 .81.025 1.164.05v-.303c-.215.012-.52-.05-.633-.165-.126-.126-.138-.303-.138-.455V19.06c0-.138 0-.277.152-.416.139-.127.44-.203.669-.216V18.1a15.56 15.56 0 0 1-1.34.063c-.327 0-.81-.025-1.163-.05v.302c.215-.012.519.051.633.165.127.127.139.316.139.442v1.442h-3.113V19.06c0-.138 0-.277.152-.416.139-.127.443-.203.67-.216V18.1c-.392.038-.936.063-1.34.063-.327 0-.808-.025-1.163-.05v.302c.216-.012.519.051.633.165.126.127.139.316.139.442v3.592c0 .14 0 .278-.152.417-.138.127-.443.202-.67.215v.33zm12.87 0a16.55 16.55 0 0 1 1.213-.063c.29 0 .808.025 1.162.05v-.302c-.215.013-.517-.05-.632-.164-.126-.127-.14-.316-.14-.444V19.06c0-.138 0-.277.153-.416.139-.127.442-.203.67-.216V18.1a15.56 15.56 0 0 1-1.34.063c-.328 0-.81-.025-1.163-.05v.302c.216-.012.518.051.633.165.127.127.139.316.139.444v3.591c0 .14-.012.291-.152.43-.14.14-.38.202-.543.202v.328zm-3.392-2.782a2.25 2.25 0 0 1 .67-.076c.342 0 .772.025 1.089.265.178.14.392.405.392.911 0 .38-.152.734-.355.95-.341.354-.821.354-1.075.354-.126 0-.43-.013-.583-.19-.113-.139-.138-.43-.138-.645v-1.569zm-1.681-2.378c.215-.012.52.051.633.165.126.127.139.316.139.417v3.313c0 .368-.013.507-.063.61-.064.125-.165.163-.28.188-.124.038-.164.051-.315.076-.164.013-.114.013-.202.025v.353h.404c.088 0 .165-.012.254-.012.176-.013.366-.013.542-.013.102 0 .215-.012.316-.012.304 0 .379 0 .544.012.215.013.53.025.848.025.885 0 1.353-.289 1.594-.555.203-.227.354-.607.354-1.063 0-.418-.127-.773-.418-1.063-.378-.379-1-.556-1.606-.556-.317 0-.734.051-1.063.127V19.06c0-.138 0-.277.15-.416.14-.127.445-.203.672-.216V18.1c-.393.038-.935.063-1.34.063-.328 0-.808-.025-1.163-.05v.302zm8.544-.29v.316c.126-.026.316-.026.594.151.418.267.746.797 1.252 1.518l.607.861-1.34 1.643c-.153.177-.292.378-.545.506a1.155 1.155 0 0 1-.543.126v.33h.15l1.178-.039.898.013v-.29l-.114-.014c-.177-.025-.342-.025-.468-.1-.09-.052-.14-.115-.14-.23 0-.062.026-.125.05-.189.065-.152.19-.34.267-.442l.822-1.049 1.024 1.415c.052.076.152.203.152.304 0 .063-.024.153-.14.215a.632.632 0 0 1-.29.063l-.316.013v.304c.722.038.96-.013 1.392-.013.467 0 .658.051 1.328.013v-.317c-.114.026-.28.026-.531-.139-.317-.202-.645-.556-1.771-2.187l-.253-.367.859-1.05c.38-.468.608-.72.835-.859a1.26 1.26 0 0 1 .67-.19h.064v-.316c-.582.025-.771.025-.86.025-.355 0-.71-.025-1.063-.025h-.328v.29l.177.026c.189.025.303.037.392.076a.205.205 0 0 1 .139.203c0 .075-.063.214-.113.29-.038.063-.215.291-.278.38l-.721.872-.95-1.315c-.037-.05-.126-.177-.126-.266 0-.076.038-.139.139-.176.063-.027.152-.039.354-.05l.215-.014v-.316h-.341c-.557 0-.57.101-1.126.051-.265-.026-.48-.05-.834-.05h-.367zm9.663 5.45c.393-.038.936-.063 1.34-.063.329 0 .809.025 1.163.05v-.303c-.215.012-.518-.05-.632-.165-.09-.076-.14-.227-.14-.392v-.266l3.113-2.705v2.883c0 .14 0 .278-.152.417-.14.127-.443.202-.67.215v.33c.392-.039.936-.064 1.34-.064.329 0 .81.025 1.163.05v-.303c-.164.012-.468-.026-.594-.127-.165-.126-.176-.34-.176-.493V19.06c0-.138 0-.277.15-.416.139-.127.444-.203.67-.216V18.1a15.54 15.54 0 0 1-1.34.063c-.327 0-.81-.025-1.162-.05v.302c.215-.012.519.051.632.165.127.127.139.316.139.442v.23l-3.112 2.703V19.06c0-.138 0-.277.152-.416.139-.127.442-.203.67-.216V18.1c-.392.038-.936.063-1.34.063-.328 0-.81-.025-1.163-.05v.302c.214-.012.519.051.633.165.126.127.139.316.139.442v3.592c0 .14 0 .278-.152.417-.14.127-.443.202-.671.215v.33zm12.063-1.604c-.064.075-.304.366-.62.593-.303.216-.62.342-.986.342-.481 0-.95-.216-1.278-.557-.417-.417-.695-1.087-.695-1.858 0-.583.189-1.24.58-1.632.266-.254.646-.418.987-.418.202 0 .38.05.557.177.253.19.278.354.545.633.125.138.239.201.43.201.278 0 .48-.15.48-.467 0-.215-.088-.392-.253-.557-.064-.062-.481-.442-1.38-.442a2.74 2.74 0 0 0-1.985.834c-.555.57-.845 1.291-.845 2.201 0 1.037.39 1.683.807 2.087a2.16 2.16 0 0 0 1.518.62c.48 0 .91-.153 1.315-.443.43-.316.785-.745 1.025-1.15l-.202-.164zm1.19-3.53c.227.013.532.09.67.215.153.14.153.278.153.418v3.552c0 .14 0 .278-.152.417-.14.127-.444.203-.67.215v.33c.392-.038.935-.063 1.338-.063.329 0 .81.025 1.164.05v-.304c-.215.012-.52-.05-.633-.163-.126-.128-.14-.317-.14-.444V20.93h.494c.254 0 .532.038.772.291.178.19.304.481.468.924.19.518.215.607.29.797.102.265.216.454.33.632h1.544v-.304h-.14a.913.913 0 0 1-.544-.19c-.127-.1-.228-.277-.455-.809-.203-.494-.38-.923-.645-1.164-.24-.227-.67-.39-1.113-.39.278-.014.506-.114.72-.405a2.87 2.87 0 0 0 .304-.582c.063-.152.127-.316.19-.505.076-.216.114-.279.14-.304.037-.037.076-.076.126-.076.049 0 .075.04.089.063.037.063.1.127.163.151a.654.654 0 0 0 .304.064c.113 0 .202-.05.279-.114a.506.506 0 0 0 .164-.405.58.58 0 0 0-.164-.429c-.14-.139-.316-.19-.52-.19-.29 0-.48.126-.632.33-.076.1-.126.24-.202.427-.076.216-.164.494-.228.66-.164.467-.278.657-.342.746-.253.353-.543.418-.884.418h-.507v-1.543c0-.128.013-.304.127-.419.164-.164.556-.177.645-.177v-.303c-.354.025-.835.051-1.164.051-.403 0-.946-.026-1.338-.064v.33zm6.16-.316v.33h.127c.202 0 .48.011.707.213.14.127.28.342.52.962l1.517 3.87-.214.468c-.316.694-.482 1-.595 1.188a2.406 2.406 0 0 1-.354.467.604.604 0 0 1-.455.203c-.051 0-.114 0-.165-.012-.05-.014-.114-.014-.165-.014a.457.457 0 0 0-.38.178.545.545 0 0 0-.113.328c0 .127.063.267.127.342.088.102.24.177.417.177.329 0 .569-.189.746-.379.177-.189.354-.468.62-.96.304-.583.595-1.203 1.05-2.214.72-1.58.999-2.188 1.214-2.656.165-.354.557-1.15.722-1.455.113-.214.252-.418.442-.543.19-.127.493-.177.72-.177v-.303l-.315-.013-.885.038-.95-.038-.29.013v.303l.202.013c.139.012.392.051.519.14.087.062.127.126.127.24 0 .138-.063.29-.115.403l-1.391 3.098-1.19-3.06c-.15-.379-.15-.468-.15-.505 0-.063.024-.126.088-.177.026-.013.1-.076.29-.088l.519-.05v-.317l-1.265.038-1.302-.05h-.38zm11.463 3.846c-.063.075-.303.366-.62.593-.303.216-.62.342-.986.342-.48 0-.95-.216-1.277-.557-.418-.417-.695-1.087-.695-1.858 0-.583.189-1.24.58-1.632.266-.254.646-.418.988-.418.202 0 .378.05.556.177.253.19.278.354.544.633.126.138.24.201.43.201.278 0 .48-.15.48-.467 0-.215-.088-.392-.252-.557-.063-.062-.48-.442-1.38-.442-.58 0-1.34.177-1.984.834-.556.57-.847 1.291-.847 2.201 0 1.037.392 1.683.808 2.087a2.159 2.159 0 0 0 1.518.62c.48 0 .912-.153 1.316-.443.43-.316.784-.745 1.024-1.15l-.203-.164zm5.799 0a3.491 3.491 0 0 1-.62.593c-.303.216-.62.342-.985.342-.481 0-.95-.216-1.278-.557-.418-.417-.695-1.087-.695-1.858 0-.583.189-1.24.582-1.632.266-.254.645-.418.986-.418.202 0 .379.05.556.177.254.19.279.354.544.633.126.138.24.201.43.201.279 0 .48-.15.48-.467 0-.215-.088-.392-.252-.557-.063-.062-.48-.442-1.38-.442a2.74 2.74 0 0 0-1.984.834c-.556.57-.846 1.291-.846 2.201 0 1.037.39 1.683.808 2.087a2.155 2.155 0 0 0 1.517.62c.482 0 .912-.153 1.316-.443.43-.316.784-.745 1.024-1.15l-.203-.164zm2.272 1.275v.316c.848.038.912-.025 1.935-.025.354 0 .898.025 1.037.025v-.329h-.113c-.23 0-.621.013-.81-.19-.152-.164-.152-.493-.152-.822v-3.705h.316c.354 0 .784-.013 1.062.278.203.202.342.683.379 1.036h.342l-.164-1.743c-1.165.025-1.252.038-1.48.038h-1.77c-.265 0-.607-.013-1.555-.038l-.165 1.743h.342c.038-.353.177-.834.379-1.036.279-.29.708-.278 1.063-.278h.316v3.857c0 .202 0 .506-.164.683-.191.202-.557.19-.721.19h-.077zm5.029-5.146v.352c.43.026.657.09.77.203.115.101.115.202.115.342v3.313c0 .368-.013.507-.063.61-.064.125-.165.163-.28.188-.125.038-.163.051-.314.076-.166.013-.115.013-.203.025v.353h.405c.088 0 .164-.012.252-.012.178-.013.367-.013.544-.013.1 0 .214-.012.316-.012.366 0 .479 0 .619.012.215.013.544.025.86.025.646 0 1.28-.05 1.72-.517.152-.165.366-.48.366-.949 0-.406-.163-.722-.377-.925-.28-.278-.772-.454-1.14-.504v-.039c.343-.024.584-.15.67-.214a1.11 1.11 0 0 0 .52-.963c0-.34-.165-.67-.405-.897-.442-.429-1.113-.48-1.695-.48-.38 0-.785.026-1.202.038-.53.013-.517-.012-1.124-.012h-.354zm1.819 2.831c.228-.038.379-.038.608-.038.442 0 1 .013 1.404.393.19.177.33.442.33.747 0 .316-.14.645-.33.835-.328.33-.846.354-1.24.354-.19 0-.481-.013-.632-.189-.114-.14-.14-.43-.14-.646V20.93zm0-2.086c0-.076.013-.253.114-.355.114-.113.329-.1.443-.1.405 0 .798 0 1.127.29.29.266.328.621.328.81 0 .304-.062.57-.316.785-.33.278-.797.304-1.076.304-.215 0-.531-.026-.62-.026v-1.708zM167.68.016c-.897-.038-.821.013-2.402.025-.936.013-1.708.025-2.403 0-.631-.025-.947-.063-1.82-.025v.378c.229 0 .569.013.772.051.139.025.316.062.392.138.126.114.19.456.2.583.04.328.065.81.065 1.846v3.353c0 1.404-.14 1.683-.24 1.796-.152.166-.48.215-.835.278l-.354.064v.365c1.594-.1 1.859-.1 1.922-.1.758 0 1.087.087 1.984.037v-.378c-.77.012-1.036-.127-1.151-.24-.164-.165-.19-.405-.19-.608v-6.4c0-.165.014-.393.216-.57.127-.102.367-.202.91-.202h.912c.316 0 .898.038 1.214.328.266.24.392.721.392 1.14h.405l.012-1.859zm2.822 3.187c-.62 0-1.442.19-2.112.86a2.98 2.98 0 0 0-.847 2.1c0 .708.253 1.43.796 1.973a2.813 2.813 0 0 0 1.999.808c.493 0 .974-.114 1.455-.39a3.19 3.19 0 0 0 1.163-1.164c.215-.368.354-.836.354-1.379 0-.735-.291-1.392-.797-1.924-.48-.506-1.136-.884-2.011-.884zm-.151.391c.468 0 .835.177 1.126.468.53.531.76 1.417.76 2.265 0 .544-.102 1.265-.61 1.758-.264.266-.67.47-1.137.47-.33 0-.747-.102-1.14-.495-.442-.455-.733-1.215-.733-2.164 0-.443.05-1.264.607-1.834.202-.202.57-.468 1.127-.468zm8.719 3.594c-.064.076-.304.366-.621.594-.302.214-.62.341-.987.341a1.8 1.8 0 0 1-1.276-.555c-.417-.419-.696-1.089-.696-1.86 0-.582.19-1.239.582-1.632.265-.253.645-.417.987-.417.202 0 .379.05.556.177.253.19.277.354.544.633.127.138.24.201.43.201.278 0 .48-.152.48-.467 0-.216-.088-.393-.253-.557-.063-.063-.48-.443-1.378-.443-.582 0-1.341.177-1.986.835-.555.57-.845 1.29-.845 2.2 0 1.038.392 1.683.808 2.088a2.156 2.156 0 0 0 1.517.618c.48 0 .91-.15 1.316-.442a3.97 3.97 0 0 0 1.025-1.15l-.203-.164zm.97-3.846v.33h.126c.202 0 .48.012.709.214.138.127.278.342.517.961l1.519 3.871-.215.467c-.317.695-.481 1-.595 1.188a2.424 2.424 0 0 1-.354.468.61.61 0 0 1-.456.202c-.05 0-.114 0-.164-.012-.051-.013-.114-.013-.164-.013a.457.457 0 0 0-.38.177.548.548 0 0 0-.113.328.59.59 0 0 0 .127.344c.087.1.239.176.416.176.329 0 .57-.189.747-.38.177-.189.353-.468.619-.96.304-.583.594-1.2 1.049-2.214l1.215-2.655c.164-.354.556-1.15.72-1.454.115-.215.254-.417.444-.544.19-.127.493-.177.72-.177v-.305l-.315-.012-.886.038-.948-.038-.291.012v.305l.2.012c.142.013.395.051.52.14.09.062.126.126.126.24 0 .138-.062.29-.113.404l-1.392 3.1-1.188-3.062c-.152-.378-.152-.468-.152-.506a.22.22 0 0 1 .089-.177c.025-.012.1-.076.29-.088l.52-.05v-.318l-1.265.04-1.303-.052h-.38zm7.727.367c.455-.025.645.038.745.114.152.126.179.354.179.494 0 .315-.115 1.05-.153 1.252-.113.658-.316 1.453-.52 1.934-.125.292-.302.57-.631.721a2.079 2.079 0 0 1-.581.14v1.946h.316c.038-.456.189-.999.467-1.277.203-.216.406-.24.595-.24h2.744c.253 0 .657.05.885.493.127.24.19.683.19 1.024h.353l.114-1.946h-.455c-.19 0-.278-.089-.316-.14-.076-.1-.09-.265-.09-.39V4.075c0-.152.052-.253.204-.342.139-.075.418-.1.568-.1v-.292c-.226 0-1.023.026-1.604.026h-1.441c-.507 0-.835-.014-1.064-.026h-.505v.367zm2.934 4.287c0 .204-.076.28-.101.304-.062.051-.191.102-.57.102h-2.124c.265-.304.43-.607.543-.886.127-.316.279-.936.317-1.074.176-.697.227-1.177.29-1.658.077-.594.089-.77.203-.898.127-.152.303-.126.455-.126h.569c.09 0 .24 0 .33.088.075.09.088.253.088.367v3.781zm3.786-3.237a.373.373 0 0 1-.05-.202c0-.077.026-.177.1-.279a.913.913 0 0 1 .406-.24c.114-.038.254-.05.418-.05.393 0 .659.113.822.277.19.19.228.443.228.633V5.91l-.784.277c-.608.215-1.09.367-1.48.595-.404.24-.568.468-.568.885 0 .316.164.784.366 1a.89.89 0 0 0 .669.277c.329 0 .684-.127 1-.342.254-.176.582-.493.81-.745v.088c0 .203.027.52.19.734.19.24.467.265.606.265.367 0 .606-.152.745-.29.19-.19.33-.506.38-.797l-.176-.076a.802.802 0 0 1-.19.278.429.429 0 0 1-.33.127c-.075 0-.164-.014-.227-.089-.037-.05-.101-.152-.101-.469V4.695c0-.304-.038-.708-.38-1.036-.301-.29-.871-.443-1.263-.456l-1.405.822c-.151.088-.416.28-.517.481a.728.728 0 0 0-.076.328c0 .076.012.164.076.342l.73-.417zm1.924 2.744a4.338 4.338 0 0 1-.531.506c-.164.126-.455.328-.721.328a.585.585 0 0 1-.507-.278 1.21 1.21 0 0 1-.177-.594c0-.317.177-.469.43-.62.165-.1.444-.253.963-.455l.543-.215v1.328zm2.257 4.49h.24c.57 0 .379-.026.986-.026.48 0 1.252.076 1.759.076h.139v-.29c-.684-.026-.912-.128-1.014-.23-.176-.175-.163-.555-.163-.834V8.906c.949.05 1.429-.013 1.809-.113.57-.152 1.215-.506 1.632-.949.303-.315.745-.923.745-1.96 0-1.113-.53-1.746-.783-1.999-.392-.379-.898-.594-1.392-.594-.252 0-.57.063-.973.24-.253.113-.735.366-1.038.543v-.87a38.17 38.17 0 0 1-1.656.745v.166c.202.05.506.176.62.328.088.114.126.291.126.493v5.59c0 .543-.064.771-.164.897-.177.216-.556.266-.873.278v.291zm1.947-7.6c.34-.205.834-.395 1.278-.395.417 0 .886.152 1.239.494.406.392.659 1.025.659 1.758 0 .71-.216 1.241-.595 1.62-.216.215-.582.481-1.228.481-.19 0-.43-.024-.645-.088-.493-.14-.595-.29-.646-.443-.05-.152-.062-.443-.062-.608v-2.82zm9.928 2.795c-.063.076-.303.366-.62.594-.303.214-.62.341-.986.341-.481 0-.948-.214-1.277-.555-.418-.419-.697-1.089-.697-1.86 0-.582.19-1.239.583-1.632.265-.253.645-.417.986-.417a.91.91 0 0 1 .557.177c.252.19.278.354.543.633.127.138.24.201.43.201.279 0 .48-.152.48-.467 0-.216-.088-.393-.252-.557-.063-.063-.48-.443-1.38-.443-.58 0-1.34.177-1.984.835-.555.57-.846 1.29-.846 2.2 0 1.038.39 1.683.808 2.088a2.155 2.155 0 0 0 1.518.618c.48 0 .91-.15 1.316-.442a3.967 3.967 0 0 0 1.024-1.15l-.203-.164zm2.272 1.276v.315c.847.038.91-.024 1.934-.024.354 0 .897.024 1.037.024v-.328h-.114c-.227 0-.62.013-.81-.19-.151-.164-.151-.493-.151-.82V3.732h.316c.354 0 .785-.013 1.063.278.202.202.34.684.379 1.038h.342l-.165-1.745c-1.164.025-1.252.038-1.48.038h-1.77c-.264 0-.606-.013-1.555-.038l-.164 1.745h.34c.039-.354.178-.836.38-1.038.279-.29.709-.278 1.063-.278h.317V7.59c0 .202 0 .507-.165.684-.19.202-.556.19-.721.19h-.076zm5.028-5.147v.353c.43.025.658.088.77.202.116.101.116.203.116.342v3.314c0 .367-.013.507-.065.608-.062.127-.163.164-.278.191-.126.037-.163.05-.315.075-.165.012-.115.012-.203.025v.352h.404c.09 0 .166-.012.253-.012.178-.012.368-.012.544-.012.1 0 .215-.013.316-.013.366 0 .48 0 .62.013.215.012.543.024.86.024.646 0 1.278-.05 1.72-.516.152-.165.367-.48.367-.95 0-.404-.166-.72-.38-.923-.278-.28-.77-.455-1.137-.506v-.037a1.39 1.39 0 0 0 .67-.216c.392-.253.518-.633.518-.96 0-.343-.164-.673-.405-.9-.442-.429-1.112-.48-1.694-.48-.38 0-.786.026-1.202.038-.531.013-.518-.012-1.125-.012h-.354zm1.819 2.832c.228-.039.38-.039.607-.039.444 0 1.002.013 1.406.393.19.177.329.443.329.747 0 .316-.14.645-.33.835-.327.33-.847.354-1.24.354-.19 0-.48-.012-.633-.189-.113-.139-.14-.43-.14-.646V6.15zm0-2.087c0-.075.013-.253.115-.354.113-.114.328-.102.443-.102.404 0 .796 0 1.127.291.29.266.328.62.328.81 0 .304-.064.57-.316.785-.33.28-.797.304-1.076.304-.215 0-.532-.025-.621-.025V4.062zm8.943 1.391c.088-.936-.24-1.466-.57-1.77-.302-.278-.757-.48-1.313-.48-.57 0-1.114.202-1.607.682-.62.608-.974 1.505-.974 2.48 0 .935.342 1.592.759 1.985.354.341.91.594 1.517.594.494 0 .962-.152 1.406-.468.302-.215.592-.506.832-.86l-.177-.203a3.797 3.797 0 0 1-.606.494 1.738 1.738 0 0 1-.923.28c-.43 0-.848-.167-1.227-.533a2.148 2.148 0 0 1-.52-.81 2.924 2.924 0 0 1-.177-.96c0-.14.013-.304.038-.43h3.542zm-3.49-.352c.075-.368.265-.849.543-1.14a1.2 1.2 0 0 1 .874-.392c.303 0 .594.113.784.304.216.215.29.456.29.76a.508.508 0 0 1-.088.316c-.126.152-.316.152-.456.152h-1.947zm4.558 3.691c.392-.037.936-.063 1.34-.063.328 0 .808.026 1.163.05v-.303a1.068 1.068 0 0 1-.633-.165c-.05-.037-.09-.087-.114-.202-.025-.126-.025-.328-.025-.239v.05-1.846h3.113v1.757c0 .14 0 .278-.152.417-.14.126-.443.203-.671.216v.328c.393-.037.936-.063 1.34-.063.33 0 .81.026 1.164.05v-.303c-.215.013-.52-.05-.632-.165-.127-.125-.14-.302-.14-.454V4.278c0-.139 0-.278.152-.417.139-.127.442-.202.67-.215v-.329c-.392.037-.936.063-1.34.063-.328 0-.81-.026-1.163-.05v.303c.215-.012.519.051.633.165.126.126.139.315.139.443v1.442h-3.113V4.278c0-.139 0-.278.152-.417.14-.127.443-.202.67-.215v-.329c-.391.037-.936.063-1.34.063-.328 0-.81-.026-1.163-.05v.303c.215-.012.519.051.633.165.127.126.139.315.139.443v3.59c0 .14 0 .278-.151.417-.14.126-.444.203-.671.216v.328zm7.709 0c.392-.037.935-.063 1.34-.063.328 0 .809.026 1.163.05v-.303a1.068 1.068 0 0 1-.633-.165c-.05-.037-.088-.087-.114-.202-.025-.126-.025-.328-.025-.239v.05-1.846h3.113v1.757c0 .14 0 .278-.151.417-.14.126-.444.203-.671.216v.328c.392-.037.936-.063 1.34-.063.328 0 .808.026 1.162.05v-.303c-.215.013-.517-.05-.632-.165-.126-.125-.14-.302-.14-.454V4.278c0-.139 0-.278.153-.417.139-.127.443-.202.67-.215v-.329c-.391.037-.936.063-1.34.063-.328 0-.808-.026-1.163-.05v.303c.216-.012.519.051.633.165.126.126.139.315.139.443v1.442h-3.113V4.278c0-.139 0-.278.152-.417.138-.127.442-.202.67-.215v-.329a15.99 15.99 0 0 1-1.34.063c-.328 0-.81-.026-1.163-.05v.303c.215-.012.52.051.633.165.126.126.139.315.139.443v3.59c0 .14 0 .278-.153.417-.138.126-.442.203-.67.216v.328zm12.87 0a16.55 16.55 0 0 1 1.213-.063c.29 0 .808.026 1.162.05v-.302c-.215.013-.518-.05-.632-.164-.126-.126-.14-.317-.14-.443V4.278c0-.139 0-.278.152-.417.14-.127.443-.202.672-.215v-.329c-.393.037-.937.063-1.341.063-.328 0-.81-.026-1.163-.05v.304c.215-.013.519.05.632.164.127.126.14.317.14.443v3.591c0 .14-.013.291-.152.431-.14.14-.38.202-.543.202v.327zm-3.393-2.782c.229-.063.406-.076.672-.076.342 0 .772.025 1.088.265.177.14.392.405.392.912 0 .38-.152.733-.354.95-.342.353-.822.353-1.076.353-.127 0-.431-.012-.582-.19-.114-.139-.14-.429-.14-.645V6.01zm-1.68-2.376c.215-.013.519.05.633.164.126.126.139.317.139.417v3.313c0 .367-.013.507-.063.608-.064.127-.165.164-.28.191-.125.037-.164.05-.315.075-.165.012-.114.012-.202.025v.352h.404c.088 0 .164-.012.253-.012.178-.012.367-.012.544-.012.1 0 .214-.013.316-.013.303 0 .379 0 .542.013.216.012.532.024.849.024.886 0 1.353-.289 1.594-.555.203-.228.354-.607.354-1.063 0-.417-.126-.77-.417-1.063-.38-.378-1-.555-1.607-.555-.317 0-.734.05-1.064.126V4.28c0-.14 0-.279.152-.418.139-.127.443-.202.67-.215v-.329a15.99 15.99 0 0 1-1.338.063c-.33 0-.81-.026-1.164-.05v.304zm8.633 5.158c.392-.037.935-.063 1.339-.063.329 0 .81.026 1.164.05v-.303c-.215.013-.52-.05-.633-.165-.088-.076-.14-.227-.14-.39v-.266l3.114-2.707v2.883c0 .14 0 .278-.152.417-.14.126-.443.203-.671.216v.328c.393-.037.937-.063 1.34-.063.329 0 .809.026 1.163.05v-.303c-.19.013-.441-.038-.556-.113-.215-.139-.215-.354-.215-.506V4.278c0-.139 0-.278.152-.417.139-.127.443-.202.67-.215v-.329c-.392.037-.936.063-1.34.063-.328 0-.808-.026-1.163-.05v.303c.215-.012.519.051.633.165.126.126.139.315.139.443v.227l-3.113 2.706V4.278c0-.139 0-.278.152-.417.139-.127.442-.202.67-.215v-.329c-.392.037-.936.063-1.34.063-.328 0-.81-.026-1.163-.05v.303c.215-.012.519.051.633.165.125.126.139.315.139.443v3.59c0 .14 0 .278-.152.417-.14.126-.443.203-.67.216v.328zm4.844-8.51a1.589 1.589 0 0 1-.253.43 2.433 2.433 0 0 1-.557.518c-.303.19-.582.227-.797.227-.215 0-.304-.037-.33-.05-.163-.076-.163-.203-.163-.24 0-.075.01-.127.037-.19a.512.512 0 0 0 .038-.202.558.558 0 0 0-.151-.367.574.574 0 0 0-.418-.152.56.56 0 0 0-.418.177.735.735 0 0 0-.164.468c0 .266.138.556.417.746.329.214.81.227.937.227.177 0 .556-.013.936-.176a2.14 2.14 0 0 0 .72-.53 2.34 2.34 0 0 0 .444-.722l-.278-.165zm14.937 3.06v.33h.126c.202 0 .48.012.709.214.139.127.277.342.518.961l1.518 3.871-.215.467c-.316.695-.481 1-.594 1.188-.165.266-.28.393-.355.468a.607.607 0 0 1-.456.202c-.05 0-.113 0-.164-.012-.051-.013-.113-.013-.164-.013a.454.454 0 0 0-.38.177.542.542 0 0 0-.113.328c0 .128.063.267.126.344.088.1.24.176.418.176.328 0 .569-.189.746-.38.177-.189.354-.468.62-.96.303-.583.594-1.2 1.049-2.214.72-1.58 1-2.187 1.214-2.655.164-.354.556-1.15.72-1.454.115-.215.255-.417.444-.544.19-.127.493-.177.722-.177v-.305l-.317-.012-.885.038-.95-.038-.291.012v.305l.203.012c.14.013.393.051.518.14.09.062.127.126.127.24 0 .138-.063.29-.113.404l-1.392 3.1-1.188-3.062c-.152-.378-.152-.468-.152-.506 0-.063.025-.126.088-.177.025-.012.1-.076.29-.088l.52-.05v-.318l-1.265.04-1.303-.052h-.38zm7.312 3.96c.049.392.049.607.075 1.137.316.203.91.505 1.846.505.393 0 .898-.05 1.265-.239.252-.126.506-.329.695-.62.164-.252.252-.506.252-.847 0-.367-.101-.683-.366-.935-.215-.204-.62-.43-1.163-.469.114-.013.456-.089.784-.303.316-.215.53-.494.53-.924a1.22 1.22 0 0 0-.593-1.075c-.442-.29-.961-.329-1.365-.329-.444 0-.962.051-1.682.355.037.417.05.81.037 1.164h.253c.012-.153.05-.43.266-.697.316-.379.695-.429 1.05-.429.189 0 .404.012.645.151.316.19.442.494.442.873 0 .405-.177.657-.341.796-.316.28-.746.292-1.114.292h-.215l-.062.417c.29-.037 1.075-.088 1.504.265.304.254.354.608.354.874 0 .518-.202.834-.391 1-.216.19-.582.29-.937.29-.454 0-.847-.178-1.05-.393-.202-.215-.354-.607-.404-.897l-.315.037zm9.874-1.849c.089-.936-.24-1.466-.568-1.77-.303-.278-.76-.48-1.315-.48-.57 0-1.114.202-1.608.682-.62.608-.972 1.505-.972 2.48 0 .935.34 1.592.757 1.985.354.341.91.594 1.519.594.494 0 .962-.152 1.404-.468.303-.215.594-.506.834-.86l-.177-.203a3.85 3.85 0 0 1-.607.494 1.735 1.735 0 0 1-.923.28c-.43 0-.848-.167-1.228-.533a2.145 2.145 0 0 1-.518-.81 2.924 2.924 0 0 1-.177-.96c0-.14.012-.304.038-.43h3.54zm-3.491-.352c.076-.368.267-.849.545-1.14a1.2 1.2 0 0 1 .872-.392c.305 0 .596.113.785.304.216.215.29.456.29.76a.507.507 0 0 1-.087.316c-.127.152-.316.152-.456.152h-1.95zm4.595 3.691a15.99 15.99 0 0 1 1.339-.063c.328 0 .809.026 1.164.05v-.303c-.216.013-.52-.05-.633-.165-.088-.076-.14-.227-.14-.39v-.266l3.114-2.707v2.883c0 .14 0 .278-.153.417-.138.126-.442.203-.67.216v.328c.393-.037.936-.063 1.34-.063.329 0 .809.026 1.163.05v-.303c-.19.013-.442-.038-.557-.113-.215-.139-.215-.354-.215-.506V4.278c0-.139 0-.278.153-.417.139-.127.442-.202.67-.215v-.329c-.393.037-.936.063-1.34.063-.328 0-.81-.026-1.163-.05v.303c.215-.012.519.051.633.165.125.126.139.315.139.443v.227l-3.113 2.706V4.278c0-.139 0-.278.152-.417.139-.127.443-.202.669-.215v-.329c-.391.037-.935.063-1.34.063-.328 0-.808-.026-1.163-.05v.303c.216-.012.52.051.633.165.127.126.139.315.139.443v3.59c0 .14 0 .278-.151.417-.14.126-.443.203-.67.216v.328zm4.844-8.51a1.642 1.642 0 0 1-.253.43 2.433 2.433 0 0 1-.557.518c-.304.19-.582.227-.797.227-.215 0-.304-.037-.33-.05-.163-.076-.163-.203-.163-.24a.47.47 0 0 1 .037-.19.53.53 0 0 0-.114-.569.573.573 0 0 0-.417-.152.562.562 0 0 0-.42.177.735.735 0 0 0-.163.468c0 .266.14.556.418.746.328.214.81.227.937.227.176 0 .556-.013.936-.176a2.14 2.14 0 0 0 .72-.53c.19-.216.342-.457.444-.722l-.278-.165zm-31.458 3.326c.189.013.417.05.62.14.126.062.254.125.367.24v.733c0 .468-.026.733-.038 1.087-.04.772-.013 1.025-.102 1.948-.012.151-.036.366-.164.505-.051.051-.215.202-.733.215v.317h.847c.127 0 .266-.014.39-.014.115 0 .215.014.33.014.139.011.29.011.43.011v-.328c-.178.013-.443-.025-.557-.126-.115-.1-.126-.228-.126-.355-.013-.454-.025-.67 0-1.315.01-.265.025-.53.038-.797.024-.48.024-.972.037-1.453.43.834.734 1.53 1.088 2.428l.81 2.022.253.04c.24-.633.456-1.152 2.126-4.958l.063 3.87c0 .252-.101.38-.113.392-.102.113-.38.176-.583.188l-.012.342c.48.04.62-.013 1.238-.013.494 0 .43.026 1.15.013v-.328h-.038c-.188 0-.454-.014-.593-.165-.165-.177-.152-.556-.152-.847l-.063-3.249c0-.153 0-.292.126-.418.1-.1.29-.152.594-.114v-.317h-.291c-.266 0-.531.026-.796.026-.152 0-.303-.026-.454-.026h-.19l-.81 1.847c-.126.291-.253.595-.38.886-.063.14-.113.265-.177.404-.138.316-.19.443-.455 1.05h-.063c-.925-2.2-1.14-2.795-1.392-3.376l-.355-.81h-.391c-.102 0-.215.012-.315.012-.114.013-.228.013-.342.013-.152 0-.304-.013-.822-.026v.292z" fill="#676767"/></g></svg>